<?xml version="1.0" encoding="UTF-8" standalone="yes"?>
<svg version="1.2" viewBox="0 0 1200 1200.3" xml:space="preserve" baseProfile="tiny-ps" xmlns="http://www.w3.org/2000/svg">
  <title>bimi-svg-tiny-12-ps</title>
  <rect x="0.2" y="0.2" class="st0" width="1200" height="1200" fill="#E31937"/>
  <g id="Layer_1_00000116942141243219996380000004221676949848195459_" class="st1"/>
  <g id="Layer_2_00000129919459033366217800000000586488750141996975_">
    <path class="st2" d="M139.4,703.3c0,0-2.4,1.9-6.9,3c-4.5,1.1-4.9,1.9-4.7,3c0.2,1.1,2.4,2,5.8,1.9c5.2-0.2,14.4-2,20.2-10.1&#xD;&#xA;&#x9;&#x9;c5-7,9.7-19,2.4-34.7c-7.3-15.7-25.3-20-42.9-17.9c-14.5,1.7-42.6,15.1-44.6,53.6s29.1,71.3,69.8,71.7c40.7,0.4,69.3-30.6,72.1-34&#xD;&#xA;&#x9;&#x9;c2.8-3.4,27.3-28.6,32.7-85c5.4-56.4,9.7-115.8,9.7-115.8l4.3-54.3c0,0,1.5-12.9-11.4-5.6s-19.2,8.4-26.9,10.6&#xD;&#xA;&#x9;&#x9;c-7.7,2.2-15.1,10.1-12.5,13.6c2.6,3.6,6.9,3.7,7.3,5.2c0.4,1.5,1.7,16.8-0.4,52.8c-2.1,36-5,76-6.9,88.9c0,0-3.9,41.6-22.2,65.5&#xD;&#xA;&#x9;&#x9;c-14.2,18.3-33,33.2-67,25c-31.5-10.1-41.5-68.3,6-74.3c0,0,32.3-2.2,21.5,30.4C144.6,697,141.7,702,139.4,703.3z" fill="#FFFFFF"/>
    <path class="st2" d="M315.1,589.2c0,0,5.5-30.9,7.8-37.1c2.4-6.2,0.1-9.2-3.9-8.8s-7.1,4.6-13.9,11.6c-6.7,7-18.5,17.1-23.5,20.2&#xD;&#xA;&#x9;&#x9;c-5,3.1-11.5,8.4-5.9,11.9c5.6,3.5,6.6,3.6,5.2,12.6c-1.4,9-7,45.5-7.3,49.7c-0.3,4.2-6.5,31.8,26,31.8s44.3-29.6,44.3-29.6&#xD;&#xA;&#x9;&#x9;s-1.5,23.4,17.9,21.8s27.6-10.2,44.7-25.8c0,0-0.1,15,23.4,17.1c23.5,2.1,42.3-1.7,60.6-12.6s27.6-32.1,24.5-45.8&#xD;&#xA;&#x9;&#x9;s-17.4-22.7-36.5-28.9c-19.2-6.2-23.5-12.6-22.4-21.4c1.1-8.8,22.8-26.9,53.9-6.9l-3.1-9.8c0,0-19.3-12.6-45.8-5.3&#xD;&#xA;&#x9;&#x9;c-26.5,7.3-38.7,31.8-36.3,48.5s13.9,18.6,32.1,23.9c18.2,5.3,30.8,9.5,30.5,17.7c-0.3,8.3-3.4,23.4-26.8,26.2&#xD;&#xA;&#x9;&#x9;c-23.4,2.8-34.5-14.8-39.2-19.9s-11.5-6-16.8,6.4c-5.3,12.5-16,12.5-18.8,12s-9.5-0.7-6.3-18.6c3.2-17.9,11.2-73.7,13.6-80.7&#xD;&#xA;&#x9;&#x9;c2.4-7,6.4-15.3-0.8-14.8c-7.3,0.4-18.1,16.4-19.7,18.1c0,0-15,13.2-19.5,15.4c-4.5,2.2-9.1,8.4-4.5,10.8s6.2,1.3,5.3,10.6&#xD;&#xA;&#x9;&#x9;c-0.8,9.4-3.8,26.6-7.1,35c-3.4,8.4-6.4,19.6-21.7,25.8c-15.3,6.2-17.9-7.8-17.8-12.2C307.3,633.9,315.1,589.2,315.1,589.2z" fill="#FFFFFF"/>
    <path class="st2" d="M965.7,558c0,0-2.7,3.4,0.6,6.1s18-7.7,22.3-10.9c4.3-3.3,14.8-13,13.4-24.4s-12.2-10.3-14.6-9.8&#xD;&#xA;&#x9;&#x9;s-17.5,6.6-16.2,19.4c1.2,12.8,9.7,9.6,9.7,9.6S976.5,553.6,965.7,558z" fill="#FFFFFF"/>
    <path class="st2" d="M240.8,753.9c0,0-10.3,3.2-6-6c4.3-9.2,12.9-18.9,13.8-19.8c0.9-0.9,2.6-6.9,38.8-15.5&#xD;&#xA;&#x9;&#x9;c0,0,111.1-34.5,438.8-28.4c0,0,169.4,2.8,308.7,30.1c0,0,9.7,10.1-38.8,3c0,0-144.2-17.2-261.4-18.3&#xD;&#xA;&#x9;&#x9;c-117.3-1.1-184.9,4.5-227.8,7.8s-157.1,16.4-249.6,42.9L240.8,753.9z" fill="#FFFFFF"/>
    <path class="st3" d="M476.3,516.6c0,0-14.6,1.6-18.7-0.9s-7.9-10.1-2.7-15.7s15,5.6,19.2,13L476.3,516.6z" fill="#F78E1E"/>
    <path class="st3" d="M499.6,462.2c-0.2-4.9-7.9-12-14.1-3.4c-5.8,10.6,4.8,16.4,4.8,16.4l12,8.1L499.6,462.2z" fill="#F78E1E"/>
    <path class="st3" d="M539.3,460.1c0,0,8.7-19,8.6-19.3c-0.1-0.3,4.2-7.5,0-11.7c-4.2-4.2-10.7-0.6-11.1,0&#xD;&#xA;&#x9;&#x9;c-0.4,0.6-5.8,3.8-4.3,10.5C534,446.2,539.3,460.1,539.3,460.1z" fill="#F78E1E"/>
    <path class="st3" d="M592.8,462.6l23.3-18.3c0,0,5-4.8,0-9.2s-14.1-4.8-17.1-1.3C596,437.2,594.1,443.1,592.8,462.6z" fill="#F78E1E"/>
    <path class="st3" d="M638.6,514c0,0,9.9-28.2,19.9-36.9c10-8.7,21.8,3.9,22.5,4.9c0.6,0.9,6.2,8-0.6,14.1&#xD;&#xA;&#x9;&#x9;C673.7,502.1,661.2,510.8,638.6,514z" fill="#F78E1E"/>
    <path class="st3" d="M514.1,556c0,0-4.3-33.6,20.3-38.2c24.6-4.6,27.2,21.7,24.9,34.6c-2.2,12.9-5.6,38.4-38.1,76.9&#xD;&#xA;&#x9;&#x9;c0,0,5.7-24.2-3.6-37.7c-9.4-13.4-15.1-10.8-25.8-16.9c-10.6-6.2-9.2-15.6-4.8-19.9C491.6,550.4,502.3,547.3,514.1,556z" fill="#F78E1E"/>
    <path class="st2" d="M553,546.1c3.2-13.9-4.3-21.4-12.4-22.3c-8.1-0.9-10.2,5.3-10.2,5.3s22.3-1.5,22,19.2&#xD;&#xA;&#x9;&#x9;C552.3,548.2,552.8,546.8,553,546.1z" fill="#FFFFFF"/>
    <path class="st2" d="M465.8,508.1c0.1,0.2-4.1-4-9.9-2.7C455.9,505.4,459.4,497.4,465.8,508.1z" fill="#FFFFFF"/>
    <path class="st2" d="M497.1,468.3c0,0-3.9-5.8-8.2-7.6c0,0,1.7-3.1,4.7-1.5C496.6,460.8,497,467.2,497.1,468.3z" fill="#FFFFFF"/>
    <path class="st2" d="M542.2,443.6c0,0,1.2-7.8-0.7-12.1c0,0,3.4-1.8,4,2.1C546.2,437.5,543.7,441,542.2,443.6z" fill="#FFFFFF"/>
    <path class="st2" d="M602.9,449.3c0,0,6.2-6.9,7.8-12.8c0,0,4.6,0.8,2.6,5.1C611.3,445.8,602.9,449.3,602.9,449.3z" fill="#FFFFFF"/>
    <path class="st2" d="M664.5,499.3c0,0,7.8-10.4,8.6-16.9c0,0,7.2,1.7,4.2,7.8C674.2,496.3,664.5,499.3,664.5,499.3z" fill="#FFFFFF"/>
    <path class="st2" d="M1074.3,571.4c-8.1-7.8-26-19.5-55.5-16.9c-29.4,2.5-48.9,23.2-47.8,45c1.1,21.7,30.9,24.4,42.3,33.9&#xD;&#xA;&#x9;&#x9;c11.3,9.5,18.9,19.3-1.4,32.4c-20.3,13-41.5-3.4-51-19.7c-9.5-16.4-15.3-5.3-26-2c0,0-72.2,29.5-68.4-33.2l61.1-13.8&#xD;&#xA;&#x9;&#x9;c0,0,27.4-4.5,26-32.4c-1.5-27.9-39.4-28.8-51.2-26.6c0,0-26.5,3.1-49.9,26.6c-23.3,23.4-23.7,43.6-24.3,46.2&#xD;&#xA;&#x9;&#x9;c-0.6,2.6,0.9,22,0.9,22l-20.4,10.1c0,0-17.7,9.3-9-17.6c8.8-26.9,17.9-59.9,17.9-59.9s10.3-26.9-12.5-33.6c0,0-25.8-9.3-56.8,20.5&#xD;&#xA;&#x9;&#x9;c0,0,5-13.1,7.5-17c2.4-3.9-3.4-8.6-10.5-3.4c-7.1,5.2-21.1,16.8-34,22.8c-12.9,6-10.8,14-3.9,15.7c0,0,1.1,0-1.1,7.5&#xD;&#xA;&#x9;&#x9;S692.7,623,692.7,623s-13.3,13.9-22,15.9c-8.8,2-17.2,3.7-10.1-23.4s12.7-53.8,16.8-65.4c4.1-11.6,11-19.4,5.6-23.2&#xD;&#xA;&#x9;&#x9;c-5.4-3.7-12.5,6-19.4,11.8c-6.9,5.8-19.2,14.8-24.1,16.4c-4.9,1.7-11,8-6.4,11.8c4.7,3.7,6-0.8,2.2,16.6&#xD;&#xA;&#x9;&#x9;c-3.7,17.4-10.6,42.6-10.6,42.6s-11.6,12.7-30.4,17.2c-18.9,4.5-15.3-14.9-13.8-21.3c1.5-6.4,18.3-77.5,18.3-77.5l21.7-1.5&#xD;&#xA;&#x9;&#x9;c0,0,7.5,1.4,9.3-11.5c1.9-12.9-2.2-10.7-12.3-10.3c-10.1,0.4-12.5,0.9-12.5,0.9s2.6-23.9-14-35.9c-16.6-12-38.3-9.9-49.1-7.1&#xD;&#xA;&#x9;&#x9;c-10.8,2.8-25.8,11.6-33.6,30.4c-5,11.9-4.1,24.5-1.9,32.2c1.2,4.5,3.7,7.3,3.7,7.3s-10.7-34,18.1-47.3&#xD;&#xA;&#x9;&#x9;c28.7-13.3,42.9,6.5,42.2,23.5s-0.9,24.6-5.5,41.5c-4.6,16.8-16.2,52.1-17.8,58.1c-1.7,6-15.7,42,23.5,38.1c0,0,22.4,1.1,51.7-24&#xD;&#xA;&#x9;&#x9;c0,0-2.1,26.1,20.4,23.5c22.4-2.6,46.1-26.5,46.1-26.5s-6.7,16.8-5,20.2c1.7,3.4,4.1,4.3,16.2,4.3c12.1,0,15.7,0.6,19-13.3&#xD;&#xA;&#x9;&#x9;c3.4-13.8,16.8-56,17.2-56.8s9-29.9,32.5-33.2s11.4,24.1,9.9,28.9c-1.5,4.9-15.9,50.2-15.9,50.2s-11.4,38.7,32.5,26.1&#xD;&#xA;&#x9;&#x9;c0,0,18.5-6.5,36.2-21.7c0,0,10.3,27.4,44.4,28.4c34.2,0.9,45.4-4.3,65.7-17.7c0,0-2.6,12.5,2.8,17.4c5.4,4.9,14.4,14.8,60.1,13.1&#xD;&#xA;&#x9;&#x9;c0,0,52.1-7.7,52.5-54.7c0,0,2.1-12.9-18.9-22.8c-20.9-9.9-26-14.6-26-14.6s-10.8-9,4.7-20.2c0,0,3.8-2.6,12.7-2.6&#xD;&#xA;&#x9;&#x9;c0.4,0,18.1,0.7,20.9,17.5c2.8,16.8,13.2,6.6,17.1,4.1C1071.2,586.1,1082.4,579.2,1074.3,571.4z M887.8,563.2&#xD;&#xA;&#x9;&#x9;c12.5-13.3,22.1-10,22.1-10s8.5,1.4,9.2,13.3c0.8,11.9-9.5,20-16.2,21.7s-32.7,6-32.7,6S875.3,576.4,887.8,563.2z" fill="#FFFFFF"/>
    <g>
      <path class="st2" d="M1070.4,534l26.5,0.8l-0.2,5l-10.4-0.3l-0.9,27.8l-5.7-0.2l0.9-27.8l-10.4-0.3L1070.4,534z" fill="#FFFFFF"/>
      <path class="st2" d="M1101.6,534.9l8.1,0.2l8.3,25.9h0.1l9.6-25.4l8,0.2l-1,32.8l-5.5-0.2l0.8-25.3h-0.1l-9.9,25l-4.7-0.1&#xD;&#xA;&#x9;&#x9;&#x9;l-8.3-25.6h-0.1l-0.8,25.3l-5.5-0.2L1101.6,534.9z" fill="#FFFFFF"/>
    </g>
  </g>
</svg>
